<svg width="1265" height="418" viewBox="0 0 1265 418" fill="none" xmlns="http://www.w3.org/2000/svg">
<rect width="1265" height="418" fill="white"/>
<path d="M112.702 329.909H118.781V350.193C118.781 352.068 118.36 353.697 117.517 355.08C116.684 356.462 115.524 357.527 114.037 358.276C112.55 359.024 110.822 359.398 108.852 359.398C107.1 359.398 105.51 359.09 104.08 358.474C102.659 357.849 101.532 356.902 100.699 355.634C99.8656 354.355 99.4537 352.75 99.4632 350.818H105.585C105.604 351.585 105.761 352.243 106.054 352.793C106.357 353.332 106.769 353.749 107.29 354.043C107.82 354.327 108.445 354.469 109.165 354.469C109.922 354.469 110.562 354.308 111.082 353.986C111.613 353.654 112.015 353.171 112.29 352.537C112.565 351.902 112.702 351.121 112.702 350.193V329.909ZM129.975 359.412C128.582 359.412 127.342 359.17 126.253 358.688C125.164 358.195 124.302 357.471 123.668 356.514C123.043 355.548 122.73 354.346 122.73 352.906C122.73 351.694 122.953 350.676 123.398 349.852C123.843 349.028 124.449 348.366 125.216 347.864C125.983 347.362 126.854 346.983 127.83 346.727C128.815 346.472 129.847 346.292 130.926 346.188C132.195 346.055 133.218 345.932 133.994 345.818C134.771 345.695 135.334 345.515 135.685 345.278C136.035 345.042 136.21 344.691 136.21 344.227V344.142C136.21 343.242 135.926 342.546 135.358 342.054C134.799 341.562 134.004 341.315 132.972 341.315C131.883 341.315 131.016 341.557 130.372 342.04C129.728 342.513 129.302 343.11 129.094 343.83L123.497 343.375C123.781 342.049 124.34 340.903 125.173 339.938C126.007 338.962 127.082 338.214 128.398 337.693C129.724 337.163 131.258 336.898 133 336.898C134.212 336.898 135.372 337.04 136.48 337.324C137.598 337.608 138.587 338.048 139.449 338.645C140.32 339.241 141.007 340.009 141.509 340.946C142.011 341.874 142.261 342.987 142.261 344.284V359H136.523V355.974H136.352C136.002 356.656 135.533 357.258 134.946 357.778C134.359 358.29 133.654 358.692 132.83 358.986C132.006 359.27 131.054 359.412 129.975 359.412ZM131.707 355.236C132.598 355.236 133.384 355.061 134.065 354.71C134.747 354.35 135.282 353.867 135.671 353.261C136.059 352.655 136.253 351.969 136.253 351.202V348.886C136.064 349.009 135.803 349.123 135.472 349.227C135.15 349.322 134.785 349.412 134.378 349.497C133.971 349.573 133.564 349.644 133.156 349.71C132.749 349.767 132.38 349.819 132.048 349.866C131.338 349.971 130.718 350.136 130.188 350.364C129.657 350.591 129.245 350.899 128.952 351.287C128.658 351.666 128.511 352.139 128.511 352.707C128.511 353.531 128.81 354.161 129.406 354.597C130.012 355.023 130.779 355.236 131.707 355.236ZM166.516 337.182L158.888 359H152.07L144.442 337.182H150.834L155.365 352.793H155.592L160.109 337.182H166.516ZM175.248 359.412C173.856 359.412 172.615 359.17 171.526 358.688C170.437 358.195 169.576 357.471 168.941 356.514C168.316 355.548 168.004 354.346 168.004 352.906C168.004 351.694 168.226 350.676 168.671 349.852C169.116 349.028 169.722 348.366 170.489 347.864C171.257 347.362 172.128 346.983 173.103 346.727C174.088 346.472 175.12 346.292 176.2 346.188C177.469 346.055 178.491 345.932 179.268 345.818C180.044 345.695 180.608 345.515 180.958 345.278C181.309 345.042 181.484 344.691 181.484 344.227V344.142C181.484 343.242 181.2 342.546 180.632 342.054C180.073 341.562 179.277 341.315 178.245 341.315C177.156 341.315 176.29 341.557 175.646 342.04C175.002 342.513 174.576 343.11 174.367 343.83L168.771 343.375C169.055 342.049 169.614 340.903 170.447 339.938C171.28 338.962 172.355 338.214 173.671 337.693C174.997 337.163 176.531 336.898 178.274 336.898C179.486 336.898 180.646 337.04 181.754 337.324C182.871 337.608 183.861 338.048 184.722 338.645C185.594 339.241 186.28 340.009 186.782 340.946C187.284 341.874 187.535 342.987 187.535 344.284V359H181.796V355.974H181.626C181.275 356.656 180.807 357.258 180.22 357.778C179.632 358.29 178.927 358.692 178.103 358.986C177.279 359.27 176.328 359.412 175.248 359.412ZM176.981 355.236C177.871 355.236 178.657 355.061 179.339 354.71C180.021 354.35 180.556 353.867 180.944 353.261C181.332 352.655 181.526 351.969 181.526 351.202V348.886C181.337 349.009 181.077 349.123 180.745 349.227C180.423 349.322 180.059 349.412 179.651 349.497C179.244 349.573 178.837 349.644 178.43 349.71C178.023 349.767 177.653 349.819 177.322 349.866C176.612 349.971 175.991 350.136 175.461 350.364C174.931 350.591 174.519 350.899 174.225 351.287C173.932 351.666 173.785 352.139 173.785 352.707C173.785 353.531 174.083 354.161 174.68 354.597C175.286 355.023 176.053 355.236 176.981 355.236Z" fill="#F44336"/>
<g clip-path="url(#clip0_201_6)">
<path d="M141.807 180.613C135.553 170.556 131.015 162.219 124.73 146.519C114.102 120 189.371 96.0375 158.852 49.9937C172.081 81.8 111.369 101.462 105.729 127.95C100.572 152.312 141.775 180.613 141.807 180.613Z" fill="#F44336"/>
<path d="M143.235 132.937C142.032 148.662 157.204 157.044 157.643 168.531C157.993 177.881 148.575 185.675 148.575 185.675C148.575 185.675 165.67 182.325 171.003 168.062C176.925 152.225 159.51 141.381 161.302 128.7C162.975 116.587 199.097 94.0562 199.097 94.0562C199.097 94.0562 145.949 97.5687 143.235 132.937Z" fill="#F44336"/>
<path d="M194.66 181.594C205.651 179.131 214.92 186.113 214.92 194.156C214.92 212.288 189.722 229.425 189.722 229.425C189.722 229.425 228.732 224.788 228.732 195.019C228.732 175.331 209.574 170.413 194.66 181.594ZM176.142 196.219C176.142 196.219 188.305 187.575 191.545 184.331C161.697 190.65 93.5471 191.5 93.5471 186.013C93.5471 180.956 115.524 175.775 115.524 175.775C115.524 175.775 66.8135 175.075 66.8135 189.406C66.8135 204.344 130.577 205.413 176.142 196.219Z" fill="#1565C0"/>
<path d="M168.659 209.819C140.403 219.188 88.3583 216.194 103.774 203.613C96.2668 203.613 85.1372 209.631 85.1372 215.419C85.1372 227.025 141.424 235.988 183.085 218.994L168.659 209.819Z" fill="#1565C0"/>
<path d="M110.699 229.619C100.447 229.619 93.8103 236.206 93.8103 241.006C93.8103 255.95 154.973 257.456 179.206 242.287L163.803 232.087C145.698 240.025 100.221 241.119 110.699 229.619Z" fill="#1565C0"/>
<path d="M220.961 253.95C220.961 248.1 214.35 245.344 211.981 244.025C225.943 277.606 72.1276 275 72.1276 255.175C72.1276 250.669 83.4515 246.256 93.9168 248.344L85.0181 243.1C64.1627 239.838 50 248.981 50 256.356C50 290.75 220.961 289.094 220.961 253.95Z" fill="#1565C0"/>
<path d="M238 266.275C212.018 291.869 146.137 301.194 79.8857 285.381C146.137 313.525 237.687 297.675 238 266.275Z" fill="#1565C0"/>
</g>
<path d="M295.632 359H289.042L299.084 329.909H307.01L317.039 359H310.448L303.161 336.557H302.934L295.632 359ZM295.221 347.565H310.789V352.366H295.221V347.565ZM324.159 359L315.835 329.909H322.554L327.369 350.122H327.61L332.923 329.909H338.676L343.974 350.165H344.23L349.045 329.909H355.764L347.44 359H341.446L335.906 339.98H335.679L330.153 359H324.159ZM374.564 338.276C374.45 337.13 373.962 336.24 373.1 335.605C372.239 334.971 371.069 334.653 369.592 334.653C368.588 334.653 367.741 334.795 367.049 335.08C366.358 335.354 365.828 335.738 365.458 336.23C365.099 336.723 364.919 337.281 364.919 337.906C364.9 338.427 365.009 338.882 365.245 339.27C365.492 339.658 365.828 339.994 366.254 340.278C366.68 340.553 367.172 340.795 367.731 341.003C368.29 341.202 368.886 341.372 369.521 341.514L372.135 342.139C373.404 342.423 374.568 342.802 375.629 343.276C376.69 343.749 377.608 344.331 378.385 345.023C379.161 345.714 379.762 346.528 380.189 347.466C380.624 348.403 380.847 349.478 380.856 350.69C380.847 352.471 380.392 354.014 379.493 355.321C378.602 356.618 377.315 357.627 375.629 358.347C373.953 359.057 371.931 359.412 369.564 359.412C367.215 359.412 365.17 359.052 363.427 358.332C361.694 357.613 360.34 356.547 359.365 355.136C358.399 353.716 357.892 351.959 357.845 349.866H363.797C363.863 350.842 364.142 351.656 364.635 352.31C365.136 352.954 365.804 353.441 366.637 353.773C367.48 354.095 368.432 354.256 369.493 354.256C370.534 354.256 371.439 354.104 372.206 353.801C372.982 353.498 373.583 353.077 374.01 352.537C374.436 351.997 374.649 351.377 374.649 350.676C374.649 350.023 374.455 349.473 374.066 349.028C373.688 348.583 373.129 348.205 372.39 347.892C371.661 347.58 370.766 347.295 369.706 347.04L366.538 346.244C364.085 345.648 362.149 344.715 360.728 343.446C359.308 342.177 358.602 340.468 358.612 338.318C358.602 336.557 359.071 335.018 360.018 333.702C360.975 332.385 362.286 331.358 363.953 330.619C365.619 329.881 367.513 329.511 369.635 329.511C371.794 329.511 373.678 329.881 375.288 330.619C376.907 331.358 378.167 332.385 379.066 333.702C379.966 335.018 380.43 336.543 380.458 338.276H374.564ZM404.564 359H394.251V329.909H404.649C407.575 329.909 410.094 330.491 412.206 331.656C414.317 332.812 415.941 334.473 417.078 336.642C418.224 338.811 418.797 341.405 418.797 344.426C418.797 347.456 418.224 350.061 417.078 352.239C415.941 354.417 414.308 356.088 412.177 357.253C410.056 358.418 407.518 359 404.564 359ZM400.402 353.73H404.308C406.126 353.73 407.655 353.408 408.896 352.764C410.146 352.111 411.083 351.102 411.708 349.739C412.343 348.366 412.66 346.595 412.66 344.426C412.66 342.277 412.343 340.52 411.708 339.156C411.083 337.793 410.151 336.789 408.91 336.145C407.67 335.501 406.14 335.179 404.322 335.179H400.402V353.73ZM426.975 367.182C426.208 367.182 425.488 367.12 424.816 366.997C424.153 366.884 423.604 366.737 423.168 366.557L424.532 362.04C425.242 362.258 425.881 362.376 426.449 362.395C427.027 362.414 427.524 362.281 427.941 361.997C428.367 361.713 428.712 361.23 428.978 360.548L429.333 359.625L421.506 337.182H427.87L432.387 353.205H432.614L437.174 337.182H443.58L435.1 361.358C434.693 362.532 434.139 363.555 433.438 364.426C432.747 365.307 431.871 365.984 430.81 366.457C429.749 366.94 428.471 367.182 426.975 367.182ZM452.728 346.386V359H446.676V337.182H452.444V341.031H452.699C453.182 339.762 453.992 338.759 455.128 338.02C456.265 337.272 457.642 336.898 459.262 336.898C460.777 336.898 462.098 337.229 463.225 337.892C464.352 338.555 465.228 339.502 465.853 340.733C466.478 341.955 466.79 343.413 466.79 345.108V359H460.739V346.188C460.748 344.852 460.408 343.811 459.716 343.062C459.025 342.305 458.073 341.926 456.861 341.926C456.047 341.926 455.327 342.101 454.702 342.452C454.087 342.802 453.604 343.313 453.253 343.986C452.912 344.649 452.737 345.449 452.728 346.386ZM477.781 359.412C476.389 359.412 475.148 359.17 474.059 358.688C472.97 358.195 472.109 357.471 471.474 356.514C470.849 355.548 470.537 354.346 470.537 352.906C470.537 351.694 470.759 350.676 471.204 349.852C471.649 349.028 472.255 348.366 473.022 347.864C473.789 347.362 474.661 346.983 475.636 346.727C476.621 346.472 477.653 346.292 478.733 346.188C480.002 346.055 481.024 345.932 481.801 345.818C482.577 345.695 483.141 345.515 483.491 345.278C483.842 345.042 484.017 344.691 484.017 344.227V344.142C484.017 343.242 483.733 342.546 483.164 342.054C482.606 341.562 481.81 341.315 480.778 341.315C479.689 341.315 478.823 341.557 478.179 342.04C477.535 342.513 477.109 343.11 476.9 343.83L471.304 343.375C471.588 342.049 472.146 340.903 472.98 339.938C473.813 338.962 474.888 338.214 476.204 337.693C477.53 337.163 479.064 336.898 480.806 336.898C482.019 336.898 483.179 337.04 484.287 337.324C485.404 337.608 486.394 338.048 487.255 338.645C488.127 339.241 488.813 340.009 489.315 340.946C489.817 341.874 490.068 342.987 490.068 344.284V359H484.329V355.974H484.159C483.808 356.656 483.34 357.258 482.752 357.778C482.165 358.29 481.46 358.692 480.636 358.986C479.812 359.27 478.86 359.412 477.781 359.412ZM479.514 355.236C480.404 355.236 481.19 355.061 481.872 354.71C482.554 354.35 483.089 353.867 483.477 353.261C483.865 352.655 484.059 351.969 484.059 351.202V348.886C483.87 349.009 483.609 349.123 483.278 349.227C482.956 349.322 482.592 349.412 482.184 349.497C481.777 349.573 481.37 349.644 480.963 349.71C480.556 349.767 480.186 349.819 479.855 349.866C479.145 349.971 478.524 350.136 477.994 350.364C477.464 350.591 477.052 350.899 476.758 351.287C476.465 351.666 476.318 352.139 476.318 352.707C476.318 353.531 476.616 354.161 477.213 354.597C477.819 355.023 478.586 355.236 479.514 355.236ZM494.762 359V337.182H500.529V341.031H500.785C501.24 339.753 501.997 338.744 503.058 338.006C504.118 337.267 505.387 336.898 506.865 336.898C508.361 336.898 509.635 337.272 510.686 338.02C511.737 338.759 512.438 339.762 512.788 341.031H513.015C513.46 339.781 514.265 338.782 515.43 338.034C516.604 337.277 517.992 336.898 519.592 336.898C521.628 336.898 523.28 337.546 524.549 338.844C525.828 340.132 526.467 341.959 526.467 344.327V359H520.43V345.52C520.43 344.308 520.108 343.399 519.464 342.793C518.82 342.187 518.015 341.884 517.049 341.884C515.951 341.884 515.094 342.234 514.478 342.935C513.863 343.626 513.555 344.54 513.555 345.676V359H507.689V345.392C507.689 344.322 507.381 343.47 506.765 342.835C506.159 342.201 505.359 341.884 504.365 341.884C503.692 341.884 503.086 342.054 502.547 342.395C502.016 342.726 501.595 343.195 501.282 343.801C500.97 344.398 500.814 345.098 500.814 345.903V359H494.762ZM541.105 359.426C538.898 359.426 536.99 358.957 535.38 358.02C533.78 357.073 532.544 355.757 531.673 354.071C530.802 352.376 530.366 350.411 530.366 348.176C530.366 345.922 530.802 343.953 531.673 342.267C532.544 340.572 533.78 339.256 535.38 338.318C536.99 337.371 538.898 336.898 541.105 336.898C543.311 336.898 545.215 337.371 546.815 338.318C548.425 339.256 549.665 340.572 550.537 342.267C551.408 343.953 551.843 345.922 551.843 348.176C551.843 350.411 551.408 352.376 550.537 354.071C549.665 355.757 548.425 357.073 546.815 358.02C545.215 358.957 543.311 359.426 541.105 359.426ZM541.133 354.739C542.137 354.739 542.975 354.455 543.647 353.886C544.32 353.309 544.826 352.523 545.167 351.528C545.518 350.534 545.693 349.402 545.693 348.134C545.693 346.865 545.518 345.733 545.167 344.739C544.826 343.744 544.32 342.958 543.647 342.381C542.975 341.803 542.137 341.514 541.133 341.514C540.12 341.514 539.268 341.803 538.576 342.381C537.895 342.958 537.378 343.744 537.028 344.739C536.687 345.733 536.517 346.865 536.517 348.134C536.517 349.402 536.687 350.534 537.028 351.528C537.378 352.523 537.895 353.309 538.576 353.886C539.268 354.455 540.12 354.739 541.133 354.739ZM566.204 359H555.892V329.909H566.289C569.216 329.909 571.734 330.491 573.846 331.656C575.958 332.812 577.582 334.473 578.718 336.642C579.864 338.811 580.437 341.405 580.437 344.426C580.437 347.456 579.864 350.061 578.718 352.239C577.582 354.417 575.949 356.088 573.818 357.253C571.697 358.418 569.159 359 566.204 359ZM562.042 353.73H565.949C567.767 353.73 569.296 353.408 570.537 352.764C571.787 352.111 572.724 351.102 573.349 349.739C573.984 348.366 574.301 346.595 574.301 344.426C574.301 342.277 573.984 340.52 573.349 339.156C572.724 337.793 571.791 336.789 570.551 336.145C569.31 335.501 567.781 335.179 565.963 335.179H562.042V353.73ZM584.993 359V329.909H596.641C598.781 329.909 600.566 330.226 601.996 330.861C603.426 331.495 604.501 332.376 605.221 333.503C605.94 334.62 606.3 335.908 606.3 337.366C606.3 338.503 606.073 339.502 605.618 340.364C605.164 341.216 604.539 341.917 603.743 342.466C602.957 343.006 602.058 343.389 601.044 343.616V343.901C602.152 343.948 603.189 344.26 604.155 344.838C605.131 345.416 605.921 346.225 606.527 347.267C607.133 348.299 607.436 349.53 607.436 350.96C607.436 352.504 607.053 353.882 606.286 355.094C605.528 356.296 604.406 357.248 602.919 357.949C601.433 358.65 599.6 359 597.422 359H584.993ZM591.144 353.972H596.158C597.872 353.972 599.122 353.645 599.908 352.991C600.694 352.329 601.087 351.448 601.087 350.349C601.087 349.545 600.893 348.834 600.505 348.219C600.116 347.603 599.562 347.12 598.843 346.77C598.132 346.42 597.285 346.244 596.3 346.244H591.144V353.972ZM591.144 342.082H595.703C596.546 342.082 597.294 341.936 597.948 341.642C598.611 341.339 599.132 340.913 599.51 340.364C599.899 339.814 600.093 339.156 600.093 338.389C600.093 337.338 599.719 336.491 598.971 335.847C598.232 335.203 597.181 334.881 595.817 334.881H591.144V342.082Z" fill="#435ADC"/>
<g clip-path="url(#clip1_201_6)">
<path d="M574 50H324V300H574V50Z" fill="url(#paint0_linear_201_6)"/>
<path d="M491.5 184.933L469.467 206.933C473.431 205.827 477.255 204.273 480.867 202.3C481.922 202.954 482.823 203.83 483.507 204.865C484.192 205.901 484.644 207.073 484.833 208.3C484.833 214.4 471.9 221.033 452.7 223.733C446.777 224.534 440.81 224.957 434.833 225H431.5C404.567 224.367 384.833 215.867 384.833 208.333C385.022 207.106 385.475 205.934 386.159 204.899C386.844 203.863 387.745 202.988 388.8 202.333C399.267 208.167 416.233 211.633 434.833 211.633H435.2L437.067 204.967C436.333 204.967 435.6 204.967 434.833 204.967C416.5 204.967 399.5 201.333 390.467 195.6C386.867 193.233 384.867 190.667 384.833 188.433V173C395.033 180.8 415.367 184.867 434.833 184.867C437.467 184.867 440.1 184.867 442.667 184.633L444.567 177.967C441.233 178.2 438.133 178.3 434.833 178.3C406.233 178.3 384.833 169.533 384.833 161.633C385.022 160.406 385.475 159.234 386.159 158.199C386.844 157.163 387.745 156.288 388.8 155.633C398 160.8 412.133 164.033 428.167 164.767L428.333 158.1C412.567 157.333 398.333 153.933 390.467 148.9C386.9 146.6 384.9 144 384.833 141.733V126.333C395.033 134.133 415.367 138.2 434.833 138.2H435.567L439.1 131.533H434.833C406.233 131.533 384.833 122.767 384.833 114.867C384.833 106.967 406.233 98.2 434.833 98.2C444.466 98.1592 454.068 99.2783 463.433 101.533H481.733C471.733 95.4333 454.467 91.5333 434.833 91.5333C407.367 91.5333 378.167 99.6667 378.167 114.867V141.7C378.267 143.601 378.767 145.459 379.634 147.154C380.502 148.848 381.717 150.34 383.2 151.533C381.698 152.746 380.472 154.265 379.604 155.99C378.736 157.714 378.246 159.604 378.167 161.533V188.2C378.244 190.129 378.733 192.02 379.601 193.745C380.469 195.47 381.696 196.989 383.2 198.2C381.698 199.413 380.472 200.932 379.604 202.657C378.736 204.381 378.246 206.271 378.167 208.2V234.867C378.147 235.1 378.147 235.334 378.167 235.567C379.067 250.2 407.733 258.067 434.833 258.067C461.933 258.067 490.6 250.2 491.5 235.5C491.533 235.268 491.533 235.032 491.5 234.8V208.133C491.436 206.201 490.953 204.306 490.084 202.579C489.215 200.853 487.98 199.336 486.467 198.133C487.971 196.922 489.198 195.403 490.066 193.678C490.934 191.953 491.423 190.063 491.5 188.133V184.933ZM484.833 234.933C484.833 242.8 463.433 251.6 434.833 251.6C406.233 251.6 384.833 242.9 384.833 234.933V219.6C395.033 227.333 415.367 231.4 434.833 231.4C454.3 231.4 474.633 227.333 484.833 219.6V234.933Z" fill="white"/>
<path d="M394.833 145.9C397.135 145.9 399 144.035 399 141.733C399 139.432 397.135 137.567 394.833 137.567C392.532 137.567 390.667 139.432 390.667 141.733C390.667 144.035 392.532 145.9 394.833 145.9Z" fill="white"/>
<path d="M394.833 192.567C397.135 192.567 399 190.701 399 188.4C399 186.099 397.135 184.233 394.833 184.233C392.532 184.233 390.667 186.099 390.667 188.4C390.667 190.701 392.532 192.567 394.833 192.567Z" fill="white"/>
<path d="M394.833 239.233C397.135 239.233 399 237.368 399 235.067C399 232.765 397.135 230.9 394.833 230.9C392.532 230.9 390.667 232.765 390.667 235.067C390.667 237.368 392.532 239.233 394.833 239.233Z" fill="white"/>
<path d="M443.167 221.6C442.58 221.594 442.005 221.433 441.5 221.133C440.851 220.76 440.347 220.178 440.068 219.483C439.79 218.787 439.754 218.018 439.967 217.3L458.7 154.933H439.833C439.251 154.941 438.677 154.796 438.168 154.512C437.66 154.229 437.234 153.817 436.934 153.318C436.634 152.819 436.47 152.25 436.458 151.668C436.446 151.086 436.587 150.511 436.867 150L456.867 110C457.144 109.45 457.567 108.988 458.091 108.664C458.615 108.341 459.218 108.169 459.833 108.167H503.167C503.707 108.14 504.245 108.245 504.736 108.472C505.226 108.7 505.654 109.044 505.982 109.473C506.31 109.903 506.528 110.406 506.619 110.939C506.709 111.472 506.668 112.019 506.5 112.533L497.967 138.167H516.667C517.318 138.169 517.954 138.362 518.497 138.723C519.04 139.083 519.465 139.594 519.721 140.193C519.976 140.793 520.05 141.454 519.934 142.095C519.818 142.736 519.516 143.328 519.067 143.8L445.733 220.467C445.414 220.831 445.018 221.121 444.575 221.317C444.132 221.512 443.651 221.609 443.167 221.6ZM445.233 148.267H463.167C463.684 148.267 464.195 148.387 464.657 148.619C465.12 148.85 465.523 149.186 465.833 149.6C466.144 150.014 466.354 150.495 466.446 151.004C466.539 151.513 466.512 152.037 466.367 152.533L450.333 205.867L508.7 144.867H493.167C492.623 144.896 492.08 144.791 491.586 144.561C491.092 144.332 490.662 143.985 490.333 143.551C490.004 143.117 489.786 142.609 489.699 142.071C489.612 141.533 489.658 140.982 489.833 140.467L498.367 114.867H461.7L445.233 148.267Z" fill="white"/>
</g>
<path d="M667.004 359H660.413L670.455 329.909H678.381L688.41 359H681.819L674.532 336.557H674.305L667.004 359ZM666.592 347.565H682.16V352.366H666.592V347.565ZM695.53 359L687.206 329.909H693.925L698.74 350.122H698.982L704.294 329.909H710.047L715.345 350.165H715.601L720.416 329.909H727.135L718.811 359H712.817L707.277 339.98H707.05L701.524 359H695.53ZM745.935 338.276C745.821 337.13 745.333 336.24 744.472 335.605C743.61 334.971 742.44 334.653 740.963 334.653C739.959 334.653 739.112 334.795 738.42 335.08C737.729 335.354 737.199 335.738 736.83 336.23C736.47 336.723 736.29 337.281 736.29 337.906C736.271 338.427 736.38 338.882 736.616 339.27C736.863 339.658 737.199 339.994 737.625 340.278C738.051 340.553 738.544 340.795 739.102 341.003C739.661 341.202 740.258 341.372 740.892 341.514L743.506 342.139C744.775 342.423 745.939 342.802 747 343.276C748.061 343.749 748.979 344.331 749.756 345.023C750.532 345.714 751.134 346.528 751.56 347.466C751.995 348.403 752.218 349.478 752.227 350.69C752.218 352.471 751.763 354.014 750.864 355.321C749.973 356.618 748.686 357.627 747 358.347C745.324 359.057 743.302 359.412 740.935 359.412C738.586 359.412 736.541 359.052 734.798 358.332C733.065 357.613 731.711 356.547 730.736 355.136C729.77 353.716 729.263 351.959 729.216 349.866H735.168C735.234 350.842 735.513 351.656 736.006 352.31C736.508 352.954 737.175 353.441 738.009 353.773C738.851 354.095 739.803 354.256 740.864 354.256C741.905 354.256 742.81 354.104 743.577 353.801C744.353 353.498 744.955 353.077 745.381 352.537C745.807 351.997 746.02 351.377 746.02 350.676C746.02 350.023 745.826 349.473 745.438 349.028C745.059 348.583 744.5 348.205 743.761 347.892C743.032 347.58 742.137 347.295 741.077 347.04L737.909 346.244C735.456 345.648 733.52 344.715 732.099 343.446C730.679 342.177 729.973 340.468 729.983 338.318C729.973 336.557 730.442 335.018 731.389 333.702C732.346 332.385 733.657 331.358 735.324 330.619C736.991 329.881 738.884 329.511 741.006 329.511C743.165 329.511 745.049 329.881 746.659 330.619C748.278 331.358 749.538 332.385 750.438 333.702C751.337 335.018 751.801 336.543 751.83 338.276H745.935ZM765.622 359V329.909H771.773V353.929H784.244V359H765.622ZM794.425 359.412C793.033 359.412 791.793 359.17 790.704 358.688C789.615 358.195 788.753 357.471 788.119 356.514C787.494 355.548 787.181 354.346 787.181 352.906C787.181 351.694 787.404 350.676 787.849 349.852C788.294 349.028 788.9 348.366 789.667 347.864C790.434 347.362 791.305 346.983 792.281 346.727C793.265 346.472 794.298 346.292 795.377 346.188C796.646 346.055 797.669 345.932 798.445 345.818C799.222 345.695 799.785 345.515 800.136 345.278C800.486 345.042 800.661 344.691 800.661 344.227V344.142C800.661 343.242 800.377 342.546 799.809 342.054C799.25 341.562 798.455 341.315 797.423 341.315C796.334 341.315 795.467 341.557 794.823 342.04C794.179 342.513 793.753 343.11 793.545 343.83L787.948 343.375C788.232 342.049 788.791 340.903 789.624 339.938C790.458 338.962 791.532 338.214 792.849 337.693C794.174 337.163 795.709 336.898 797.451 336.898C798.663 336.898 799.823 337.04 800.931 337.324C802.049 337.608 803.038 338.048 803.9 338.645C804.771 339.241 805.458 340.009 805.96 340.946C806.461 341.874 806.712 342.987 806.712 344.284V359H800.974V355.974H800.803C800.453 356.656 799.984 357.258 799.397 357.778C798.81 358.29 798.104 358.692 797.281 358.986C796.457 359.27 795.505 359.412 794.425 359.412ZM796.158 355.236C797.049 355.236 797.835 355.061 798.516 354.71C799.198 354.35 799.733 353.867 800.121 353.261C800.51 352.655 800.704 351.969 800.704 351.202V348.886C800.514 349.009 800.254 349.123 799.923 349.227C799.601 349.322 799.236 349.412 798.829 349.497C798.422 349.573 798.014 349.644 797.607 349.71C797.2 349.767 796.831 349.819 796.499 349.866C795.789 349.971 795.169 350.136 794.638 350.364C794.108 350.591 793.696 350.899 793.403 351.287C793.109 351.666 792.962 352.139 792.962 352.707C792.962 353.531 793.261 354.161 793.857 354.597C794.463 355.023 795.23 355.236 796.158 355.236ZM811.407 359V337.182H817.174V341.031H817.43C817.884 339.753 818.642 338.744 819.702 338.006C820.763 337.267 822.032 336.898 823.509 336.898C825.005 336.898 826.279 337.272 827.33 338.02C828.381 338.759 829.082 339.762 829.433 341.031H829.66C830.105 339.781 830.91 338.782 832.075 338.034C833.249 337.277 834.636 336.898 836.237 336.898C838.272 336.898 839.925 337.546 841.194 338.844C842.472 340.132 843.112 341.959 843.112 344.327V359H837.075V345.52C837.075 344.308 836.753 343.399 836.109 342.793C835.465 342.187 834.66 341.884 833.694 341.884C832.595 341.884 831.738 342.234 831.123 342.935C830.507 343.626 830.2 344.54 830.2 345.676V359H824.333V345.392C824.333 344.322 824.025 343.47 823.41 342.835C822.804 342.201 822.004 341.884 821.009 341.884C820.337 341.884 819.731 342.054 819.191 342.395C818.661 342.726 818.239 343.195 817.927 343.801C817.614 344.398 817.458 345.098 817.458 345.903V359H811.407ZM848.005 359V329.909H854.056V340.847H854.241C854.506 340.259 854.889 339.663 855.391 339.057C855.903 338.441 856.566 337.93 857.38 337.523C858.204 337.106 859.227 336.898 860.448 336.898C862.039 336.898 863.507 337.314 864.852 338.148C866.196 338.972 867.271 340.217 868.076 341.884C868.881 343.541 869.283 345.619 869.283 348.119C869.283 350.553 868.89 352.608 868.104 354.284C867.328 355.951 866.267 357.215 864.923 358.077C863.587 358.929 862.091 359.355 860.434 359.355C859.26 359.355 858.261 359.161 857.437 358.773C856.622 358.384 855.955 357.897 855.434 357.31C854.913 356.713 854.515 356.112 854.241 355.506H853.971V359H848.005ZM853.928 348.091C853.928 349.388 854.108 350.52 854.468 351.486C854.828 352.452 855.349 353.205 856.031 353.744C856.712 354.275 857.541 354.54 858.516 354.54C859.501 354.54 860.335 354.27 861.016 353.73C861.698 353.181 862.214 352.423 862.565 351.457C862.924 350.482 863.104 349.36 863.104 348.091C863.104 346.831 862.929 345.723 862.579 344.767C862.228 343.811 861.712 343.062 861.031 342.523C860.349 341.983 859.511 341.713 858.516 341.713C857.531 341.713 856.698 341.973 856.016 342.494C855.344 343.015 854.828 343.754 854.468 344.71C854.108 345.667 853.928 346.794 853.928 348.091ZM881.361 359.355C879.704 359.355 878.203 358.929 876.858 358.077C875.523 357.215 874.462 355.951 873.676 354.284C872.9 352.608 872.511 350.553 872.511 348.119C872.511 345.619 872.914 343.541 873.719 341.884C874.524 340.217 875.594 338.972 876.929 338.148C878.274 337.314 879.746 336.898 881.347 336.898C882.568 336.898 883.586 337.106 884.401 337.523C885.224 337.93 885.887 338.441 886.389 339.057C886.901 339.663 887.289 340.259 887.554 340.847H887.739V329.909H893.776V359H887.81V355.506H887.554C887.27 356.112 886.867 356.713 886.347 357.31C885.835 357.897 885.168 358.384 884.344 358.773C883.529 359.161 882.535 359.355 881.361 359.355ZM883.278 354.54C884.254 354.54 885.078 354.275 885.75 353.744C886.432 353.205 886.953 352.452 887.312 351.486C887.682 350.52 887.866 349.388 887.866 348.091C887.866 346.794 887.687 345.667 887.327 344.71C886.967 343.754 886.446 343.015 885.764 342.494C885.082 341.973 884.254 341.713 883.278 341.713C882.284 341.713 881.446 341.983 880.764 342.523C880.082 343.062 879.566 343.811 879.216 344.767C878.866 345.723 878.69 346.831 878.69 348.091C878.69 349.36 878.866 350.482 879.216 351.457C879.576 352.423 880.092 353.181 880.764 353.73C881.446 354.27 882.284 354.54 883.278 354.54ZM904.972 359.412C903.58 359.412 902.34 359.17 901.251 358.688C900.162 358.195 899.3 357.471 898.665 356.514C898.04 355.548 897.728 354.346 897.728 352.906C897.728 351.694 897.951 350.676 898.396 349.852C898.841 349.028 899.447 348.366 900.214 347.864C900.981 347.362 901.852 346.983 902.827 346.727C903.812 346.472 904.844 346.292 905.924 346.188C907.193 346.055 908.216 345.932 908.992 345.818C909.769 345.695 910.332 345.515 910.683 345.278C911.033 345.042 911.208 344.691 911.208 344.227V344.142C911.208 343.242 910.924 342.546 910.356 342.054C909.797 341.562 909.002 341.315 907.969 341.315C906.88 341.315 906.014 341.557 905.37 342.04C904.726 342.513 904.3 343.11 904.092 343.83L898.495 343.375C898.779 342.049 899.338 340.903 900.171 339.938C901.004 338.962 902.079 338.214 903.396 337.693C904.721 337.163 906.255 336.898 907.998 336.898C909.21 336.898 910.37 337.04 911.478 337.324C912.595 337.608 913.585 338.048 914.447 338.645C915.318 339.241 916.004 340.009 916.506 340.946C917.008 341.874 917.259 342.987 917.259 344.284V359H911.521V355.974H911.35C911 356.656 910.531 357.258 909.944 357.778C909.357 358.29 908.651 358.692 907.827 358.986C907.004 359.27 906.052 359.412 904.972 359.412ZM906.705 355.236C907.595 355.236 908.381 355.061 909.063 354.71C909.745 354.35 910.28 353.867 910.668 353.261C911.057 352.655 911.251 351.969 911.251 351.202V348.886C911.061 349.009 910.801 349.123 910.469 349.227C910.147 349.322 909.783 349.412 909.376 349.497C908.969 349.573 908.561 349.644 908.154 349.71C907.747 349.767 907.378 349.819 907.046 349.866C906.336 349.971 905.716 350.136 905.185 350.364C904.655 350.591 904.243 350.899 903.95 351.287C903.656 351.666 903.509 352.139 903.509 352.707C903.509 353.531 903.808 354.161 904.404 354.597C905.01 355.023 905.777 355.236 906.705 355.236Z" fill="#F78E05"/>
<g clip-path="url(#clip2_201_6)">
<path d="M915 50H665V300H915V50Z" fill="#F78E05"/>
<path d="M880.278 261.806H817.819L757.958 140.278H734.444V84.7222H795.625L855.986 209.722H880.278V261.806ZM826.458 247.917H866.389V223.611H847.278L786.917 98.6111H748.333V126.389H766.597L826.458 247.917Z" fill="white"/>
<path d="M764.111 261.806H700.472L752.701 160.681L784.174 222.16L764.111 261.806ZM723.278 247.917H755.569L768.59 222.201L752.646 191.056L723.278 247.917Z" fill="white"/>
</g>
<path d="M1002.37 338.276C1002.25 337.13 1001.77 336.24 1000.91 335.605C1000.04 334.971 998.874 334.653 997.397 334.653C996.393 334.653 995.545 334.795 994.854 335.08C994.163 335.354 993.632 335.738 993.263 336.23C992.903 336.723 992.723 337.281 992.723 337.906C992.704 338.427 992.813 338.882 993.05 339.27C993.296 339.658 993.632 339.994 994.059 340.278C994.485 340.553 994.977 340.795 995.536 341.003C996.095 341.202 996.691 341.372 997.326 341.514L999.939 342.139C1001.21 342.423 1002.37 342.802 1003.43 343.276C1004.49 343.749 1005.41 344.331 1006.19 345.023C1006.97 345.714 1007.57 346.528 1007.99 347.466C1008.43 348.403 1008.65 349.478 1008.66 350.69C1008.65 352.471 1008.2 354.014 1007.3 355.321C1006.41 356.618 1005.12 357.627 1003.43 358.347C1001.76 359.057 999.736 359.412 997.368 359.412C995.02 359.412 992.974 359.052 991.232 358.332C989.499 357.613 988.145 356.547 987.169 355.136C986.203 353.716 985.697 351.959 985.65 349.866H991.601C991.667 350.842 991.947 351.656 992.439 352.31C992.941 352.954 993.609 353.441 994.442 353.773C995.285 354.095 996.237 354.256 997.297 354.256C998.339 354.256 999.243 354.104 1000.01 353.801C1000.79 353.498 1001.39 353.077 1001.81 352.537C1002.24 351.997 1002.45 351.377 1002.45 350.676C1002.45 350.023 1002.26 349.473 1001.87 349.028C1001.49 348.583 1000.93 348.205 1000.19 347.892C999.466 347.58 998.571 347.295 997.51 347.04L994.343 346.244C991.89 345.648 989.953 344.715 988.533 343.446C987.113 342.177 986.407 340.468 986.417 338.318C986.407 336.557 986.876 335.018 987.823 333.702C988.779 332.385 990.091 331.358 991.757 330.619C993.424 329.881 995.318 329.511 997.439 329.511C999.598 329.511 1001.48 329.881 1003.09 330.619C1004.71 331.358 1005.97 332.385 1006.87 333.702C1007.77 335.018 1008.23 336.543 1008.26 338.276H1002.37ZM1022.63 359.426C1020.38 359.426 1018.45 358.972 1016.83 358.062C1015.22 357.144 1013.98 355.847 1013.11 354.17C1012.24 352.485 1011.8 350.491 1011.8 348.19C1011.8 345.946 1012.24 343.976 1013.11 342.281C1013.98 340.586 1015.21 339.265 1016.79 338.318C1018.38 337.371 1020.25 336.898 1022.39 336.898C1023.83 336.898 1025.17 337.13 1026.41 337.594C1027.66 338.048 1028.74 338.735 1029.67 339.653C1030.61 340.572 1031.34 341.727 1031.86 343.119C1032.38 344.502 1032.64 346.121 1032.64 347.977V349.639H1014.22V345.889H1026.95C1026.95 345.018 1026.76 344.246 1026.38 343.574C1026 342.902 1025.47 342.376 1024.8 341.997C1024.14 341.609 1023.37 341.415 1022.49 341.415C1021.57 341.415 1020.75 341.628 1020.04 342.054C1019.34 342.471 1018.79 343.034 1018.39 343.744C1018 344.445 1017.79 345.226 1017.78 346.088V349.653C1017.78 350.733 1017.98 351.666 1018.38 352.452C1018.79 353.238 1019.36 353.844 1020.1 354.27C1020.84 354.696 1021.71 354.909 1022.73 354.909C1023.4 354.909 1024.01 354.814 1024.57 354.625C1025.13 354.436 1025.61 354.152 1026.01 353.773C1026.41 353.394 1026.71 352.93 1026.92 352.381L1032.51 352.75C1032.23 354.095 1031.65 355.269 1030.77 356.273C1029.9 357.267 1028.77 358.044 1027.39 358.602C1026.01 359.152 1024.43 359.426 1022.63 359.426ZM1036.59 359V337.182H1042.46V340.989H1042.68C1043.08 339.634 1043.75 338.612 1044.69 337.92C1045.62 337.22 1046.7 336.869 1047.93 336.869C1048.23 336.869 1048.56 336.888 1048.91 336.926C1049.26 336.964 1049.56 337.016 1049.83 337.082V342.452C1049.55 342.366 1049.15 342.291 1048.65 342.224C1048.15 342.158 1047.69 342.125 1047.27 342.125C1046.38 342.125 1045.59 342.319 1044.89 342.707C1044.19 343.086 1043.65 343.616 1043.24 344.298C1042.84 344.98 1042.64 345.766 1042.64 346.656V359H1036.59ZM1073.96 337.182L1066.33 359H1059.52L1051.89 337.182H1058.28L1062.81 352.793H1063.04L1067.56 337.182H1073.96ZM1086.3 359.426C1084.06 359.426 1082.12 358.972 1080.5 358.062C1078.89 357.144 1077.65 355.847 1076.78 354.17C1075.91 352.485 1075.48 350.491 1075.48 348.19C1075.48 345.946 1075.91 343.976 1076.78 342.281C1077.65 340.586 1078.88 339.265 1080.46 338.318C1082.05 337.371 1083.92 336.898 1086.06 336.898C1087.5 336.898 1088.84 337.13 1090.08 337.594C1091.33 338.048 1092.42 338.735 1093.34 339.653C1094.28 340.572 1095.01 341.727 1095.53 343.119C1096.05 344.502 1096.31 346.121 1096.31 347.977V349.639H1077.89V345.889H1090.62C1090.62 345.018 1090.43 344.246 1090.05 343.574C1089.67 342.902 1089.15 342.376 1088.47 341.997C1087.81 341.609 1087.04 341.415 1086.16 341.415C1085.24 341.415 1084.42 341.628 1083.71 342.054C1083.01 342.471 1082.46 343.034 1082.07 343.744C1081.67 344.445 1081.47 345.226 1081.46 346.088V349.653C1081.46 350.733 1081.65 351.666 1082.05 352.452C1082.46 353.238 1083.03 353.844 1083.77 354.27C1084.51 354.696 1085.39 354.909 1086.4 354.909C1087.07 354.909 1087.69 354.814 1088.25 354.625C1088.8 354.436 1089.28 354.152 1089.68 353.773C1090.08 353.394 1090.38 352.93 1090.59 352.381L1096.19 352.75C1095.9 354.095 1095.32 355.269 1094.44 356.273C1093.57 357.267 1092.44 358.044 1091.06 358.602C1089.68 359.152 1088.1 359.426 1086.3 359.426ZM1100.26 359V337.182H1106.13V340.989H1106.36C1106.75 339.634 1107.42 338.612 1108.36 337.92C1109.3 337.22 1110.38 336.869 1111.6 336.869C1111.9 336.869 1112.23 336.888 1112.58 336.926C1112.93 336.964 1113.24 337.016 1113.5 337.082V342.452C1113.22 342.366 1112.82 342.291 1112.32 342.224C1111.82 342.158 1111.36 342.125 1110.94 342.125C1110.05 342.125 1109.26 342.319 1108.56 342.707C1107.87 343.086 1107.32 343.616 1106.91 344.298C1106.51 344.98 1106.31 345.766 1106.31 346.656V359H1100.26ZM1122.68 329.909V359H1116.63V329.909H1122.68ZM1137.47 359.426C1135.23 359.426 1133.3 358.972 1131.68 358.062C1130.07 357.144 1128.83 355.847 1127.95 354.17C1127.08 352.485 1126.65 350.491 1126.65 348.19C1126.65 345.946 1127.08 343.976 1127.95 342.281C1128.83 340.586 1130.05 339.265 1131.63 338.318C1133.22 337.371 1135.09 336.898 1137.23 336.898C1138.67 336.898 1140.01 337.13 1141.25 337.594C1142.5 338.048 1143.59 338.735 1144.52 339.653C1145.45 340.572 1146.18 341.727 1146.7 343.119C1147.23 344.502 1147.49 346.121 1147.49 347.977V349.639H1129.06V345.889H1141.79C1141.79 345.018 1141.6 344.246 1141.22 343.574C1140.84 342.902 1140.32 342.376 1139.64 341.997C1138.98 341.609 1138.21 341.415 1137.33 341.415C1136.41 341.415 1135.6 341.628 1134.89 342.054C1134.19 342.471 1133.64 343.034 1133.24 343.744C1132.84 344.445 1132.64 345.226 1132.63 346.088V349.653C1132.63 350.733 1132.83 351.666 1133.22 352.452C1133.63 353.238 1134.2 353.844 1134.94 354.27C1135.68 354.696 1136.56 354.909 1137.57 354.909C1138.24 354.909 1138.86 354.814 1139.42 354.625C1139.98 354.436 1140.45 354.152 1140.85 353.773C1141.25 353.394 1141.55 352.93 1141.76 352.381L1147.36 352.75C1147.07 354.095 1146.49 355.269 1145.61 356.273C1144.74 357.267 1143.61 358.044 1142.23 358.602C1140.86 359.152 1139.27 359.426 1137.47 359.426ZM1169.59 343.403L1164.05 343.744C1163.95 343.271 1163.75 342.845 1163.44 342.466C1163.12 342.078 1162.71 341.77 1162.2 341.543C1161.7 341.306 1161.1 341.188 1160.4 341.188C1159.46 341.188 1158.67 341.386 1158.03 341.784C1157.38 342.172 1157.06 342.693 1157.06 343.347C1157.06 343.867 1157.27 344.308 1157.68 344.668C1158.1 345.027 1158.82 345.316 1159.83 345.534L1163.78 346.33C1165.9 346.765 1167.48 347.466 1168.52 348.432C1169.56 349.398 1170.08 350.667 1170.08 352.239C1170.08 353.669 1169.66 354.923 1168.82 356.003C1167.99 357.082 1166.84 357.925 1165.38 358.531C1163.93 359.128 1162.26 359.426 1160.37 359.426C1157.48 359.426 1155.18 358.825 1153.47 357.622C1151.76 356.41 1150.76 354.762 1150.47 352.679L1156.42 352.366C1156.6 353.247 1157.04 353.92 1157.73 354.384C1158.42 354.838 1159.3 355.065 1160.38 355.065C1161.44 355.065 1162.3 354.862 1162.94 354.455C1163.59 354.038 1163.92 353.503 1163.93 352.849C1163.92 352.3 1163.69 351.85 1163.24 351.5C1162.78 351.14 1162.08 350.866 1161.14 350.676L1157.36 349.923C1155.23 349.497 1153.64 348.759 1152.6 347.707C1151.57 346.656 1151.05 345.316 1151.05 343.688C1151.05 342.286 1151.43 341.079 1152.19 340.065C1152.95 339.052 1154.03 338.271 1155.41 337.722C1156.8 337.172 1158.43 336.898 1160.3 336.898C1163.05 336.898 1165.22 337.48 1166.8 338.645C1168.39 339.81 1169.32 341.396 1169.59 343.403ZM1192.05 343.403L1186.51 343.744C1186.41 343.271 1186.21 342.845 1185.9 342.466C1185.59 342.078 1185.17 341.77 1184.66 341.543C1184.16 341.306 1183.56 341.188 1182.86 341.188C1181.92 341.188 1181.13 341.386 1180.49 341.784C1179.84 342.172 1179.52 342.693 1179.52 343.347C1179.52 343.867 1179.73 344.308 1180.15 344.668C1180.56 345.027 1181.28 345.316 1182.29 345.534L1186.24 346.33C1188.36 346.765 1189.94 347.466 1190.98 348.432C1192.02 349.398 1192.55 350.667 1192.55 352.239C1192.55 353.669 1192.12 354.923 1191.28 356.003C1190.45 357.082 1189.3 357.925 1187.84 358.531C1186.4 359.128 1184.72 359.426 1182.83 359.426C1179.94 359.426 1177.64 358.825 1175.93 357.622C1174.22 356.41 1173.22 354.762 1172.93 352.679L1178.88 352.366C1179.06 353.247 1179.5 353.92 1180.19 354.384C1180.88 354.838 1181.76 355.065 1182.84 355.065C1183.9 355.065 1184.76 354.862 1185.4 354.455C1186.05 354.038 1186.39 353.503 1186.4 352.849C1186.39 352.3 1186.15 351.85 1185.7 351.5C1185.24 351.14 1184.54 350.866 1183.6 350.676L1179.82 349.923C1177.69 349.497 1176.1 348.759 1175.06 347.707C1174.03 346.656 1173.51 345.316 1173.51 343.688C1173.51 342.286 1173.89 341.079 1174.65 340.065C1175.42 339.052 1176.49 338.271 1177.87 337.722C1179.26 337.172 1180.89 336.898 1182.76 336.898C1185.51 336.898 1187.68 337.48 1189.26 338.645C1190.86 339.81 1191.78 341.396 1192.05 343.403Z" fill="#FD5750"/>
<rect x="965" y="50" width="250" height="250" fill="#FD5750"/>
<g clip-path="url(#clip3_201_6)">
<path d="M1000 215.999H1031.86L1021.99 245.718H1000V215.999ZM1000 159.5H1050.63L1040.76 189.218H1000V159.5ZM1000 103H1069.39L1059.52 132.718H1000V103ZM1100.79 103H1180V132.718H1090.92L1100.79 103ZM1082.03 159.5H1180V189.218H1072.16L1082.03 159.5ZM1063.26 215.999H1180V245.718H1053.39L1063.26 215.999Z" fill="white"/>
</g>
<defs>
<linearGradient id="paint0_linear_201_6" x1="272.233" y1="351.767" x2="625.767" y2="-1.76667" gradientUnits="userSpaceOnUse">
<stop stop-color="#2E27AD"/>
<stop offset="1" stop-color="#527FFF"/>
</linearGradient>
<clipPath id="clip0_201_6">
<rect width="188" height="250" fill="white" transform="translate(50 50)"/>
</clipPath>
<clipPath id="clip1_201_6">
<rect width="250" height="250" fill="white" transform="translate(324 50)"/>
</clipPath>
<clipPath id="clip2_201_6">
<rect width="250" height="250" fill="white" transform="translate(665 50)"/>
</clipPath>
<clipPath id="clip3_201_6">
<rect width="180" height="143" fill="white" transform="translate(1000 103)"/>
</clipPath>
</defs>
</svg>
